<?xml version="1.0" encoding="UTF-8" standalone="no"?>
<!-- Created with Inkscape (http://www.inkscape.org/) -->

<svg
   width="270mm"
   height="130mm"
   viewBox="0 0 270 130"
   version="1.1"
   id="svg5"
   xml:space="preserve"
   inkscape:version="1.2.1 (9c6d41e, 2022-07-14)"
   sodipodi:docname="neurosciencelogo.svg"
   xmlns:inkscape="http://www.inkscape.org/namespaces/inkscape"
   xmlns:sodipodi="http://sodipodi.sourceforge.net/DTD/sodipodi-0.dtd"
   xmlns="http://www.w3.org/2000/svg"
   xmlns:svg="http://www.w3.org/2000/svg"><sodipodi:namedview
     id="namedview7"
     pagecolor="#ffffff"
     bordercolor="#000000"
     borderopacity="0.25"
     inkscape:showpageshadow="2"
     inkscape:pageopacity="0.0"
     inkscape:pagecheckerboard="0"
     inkscape:deskcolor="#d1d1d1"
     inkscape:document-units="mm"
     showgrid="false"
     inkscape:zoom="0.66972536"
     inkscape:cx="414.34895"
     inkscape:cy="292.65728"
     inkscape:window-width="1470"
     inkscape:window-height="836"
     inkscape:window-x="0"
     inkscape:window-y="37"
     inkscape:window-maximized="0"
     inkscape:current-layer="layer1" /><defs
     id="defs2"><rect
       x="436.78574"
       y="163.91309"
       width="519.216"
       height="230.2363"
       id="rect8465" /></defs><g
     inkscape:label="Layer 1"
     inkscape:groupmode="layer"
     id="layer1"><g
       inkscape:groupmode="layer"
       id="layer2"
       inkscape:label="background"
       style="display:none"><rect
         style="opacity:1;fill:#fff68f;fill-opacity:1;stroke:none;stroke-width:12;stroke-miterlimit:10;stop-color:#000000"
         id="rect8768"
         width="270.36447"
         height="130.54016"
         x="-0.28133655"
         y="-0.28133655"
         rx="0.1570158"
         ry="0.27348858" /></g><path
       style="opacity:0.868502;fill:#001655;fill-opacity:1;stroke:none;stroke-width:12;stroke-miterlimit:10;stop-color:#000000"
       d="m 69.761387,120.80315 -9.587251,-16.43529 c 0,0 2.423152,0.31606 3.476697,-0.10535 3.435797,-2.20585 0.164422,-7.856379 -2.001735,-9.692577 -1.685671,-1.369604 -3.687405,-4.319517 -3.687405,-4.319517 0,0 -1.078823,1.698872 -3.687405,3.055273 -0.231043,0.12014 2.041581,-1.95894 2.84457,-4.951653 0.419816,-4.612272 -3.4756,-5.868308 -6.742682,-7.585519 -3.74301,1.042584 -7.52288,3.634848 -8.849772,7.058747 -1.053545,2.84457 -1.474962,5.162358 -1.474962,5.162358 H 21.403711 L 31.331574,75.79407 c 2.795841,1.462095 8.219765,2.195834 10.33374,1.893418 2.739215,-0.421417 6.709128,-2.081336 6.709128,-2.081336 0,0 -0.105354,-1.791025 -0.526772,-3.898114 -0.291202,-2.395379 -2.105552,-4.595397 -4.003469,-5.267719 -3.890477,-1.056326 -7.367381,1.365251 -8.955124,3.415041 -1.292184,1.697375 -2.317798,3.222286 -2.317798,3.222286 1.960508,-3.369314 3.387321,-7.342987 7.164099,-8.84977 2.035772,-0.676612 2.166951,-1.011903 1.474962,-2.633861 -0.632126,-1.369608 -1.640611,-2.547389 -1.158898,-5.407836 0.719992,-2.947686 -0.786497,-4.953874 -2.949922,-4.179415 -3.27964,1.540188 -3.353,3.876429 -3.371342,7.058744 L 21.531658,37.937053 h 18.098366 c 3.207086,0 5.348703,2.501251 6.761566,5.249764 0.538358,1.260606 0.929308,2.709389 0.929308,4.078997 0.809768,7.430136 -2.668605,10.947722 -0.316064,14.012138 2.405112,2.309057 3.893945,1.55163 6.215909,-0.105355 -0.918079,-3.55305 -1.017792,-6.392638 0.94819,-9.376542 2.849609,-3.87261 1.031815,-4.541807 -0.75543,-7.945285 -2.21556,-4.284406 -2.089137,-5.750789 -2.089137,-5.750789 2.173505,4.651188 6.454239,9.467819 7.164099,6.637327 0.714384,-4.357085 -1.403307,-8.209185 -2.212443,-12.326467 2.378133,4.354578 5.543057,11.04476 2.66976,15.206935 -1.791026,2.423152 -3.14034,4.214951 -3.512595,5.231823 -0.989206,2.702172 -0.526773,3.687403 0.316063,4.424884 0.842835,0.737481 1.89638,0.737481 4.846304,-0.105354 2.949924,-0.842836 2.949924,0.842835 5.267719,-0.421418 2.317798,-1.264253 3.841368,-3.967615 6.430764,-6.251422 2.589395,-2.283807 6.913122,-3.120176 8.424209,-6.075045 0.832221,-1.876515 1.093932,-4.356838 -2.001732,-7.164099 C 73.332599,31.570182 66.480513,29.400627 60.174136,25.66816 L 69.09269,10.220771 80.201197,29.947429 c 2.090665,3.803286 6.306458,11.001177 5.679412,14.789879 0,0 1.636332,-0.772885 6.215912,0.421417 3.743595,0.976286 7.074351,2.371647 9.392159,2.055584 4.26986,-0.962217 3.25343,-4.418963 1.24085,-6.375115 -1.63774,-1.579553 -3.995682,-3.582049 -3.995682,-3.582049 h 18.753112 c -3.40546,5.788668 -7.59224,19.444666 -17.27815,17.383477 -2.625018,-0.782677 -6.560058,-2.923681 -9.903314,-3.66165 -4.558468,-1.006206 -7.652631,-0.785869 -9.543552,1.351658 -2.672745,3.021316 -4.541993,5.879863 -5.391023,11.642835 -0.573394,3.892038 1.238501,5.52213 4.715194,6.575674 3.476697,1.053545 4.003469,1.264253 7.269456,0 7.465805,-3.476927 14.922309,-2.891255 18.963819,4.108823 2.32152,4.106722 10.78758,18.684627 10.78758,18.684627 H 96.416054 c 3.624186,-7.560678 4.902326,-13.701645 -0.887653,-16.456008 -5.789975,-2.754364 -7.32161,6.003059 -20.376635,-2.437787 -0.276179,2.712987 -1.908705,5.468468 -6.654632,8.110748 -2.107089,1.053545 -3.898111,1.053545 -4.951656,2.739216 -1.053544,1.685671 -1.158899,2.949924 0.210709,3.687405 1.369608,0.737481 3.742025,2.602645 5.05701,1.791025 2.813729,-1.736662 4.951659,-3.055278 7.374811,-2.528506 2.423152,0.526772 4.003466,2.317797 4.635592,4.214173 0.632127,1.896368 2.235801,1.850268 2.235801,2.587745 0,0.737474 -0.496144,1.217494 -1.39536,0.781174 -1.822238,-0.884184 -1.156504,-1.893968 -2.104694,-3.158212 -0.948187,-1.264247 -3.16063,-2.949918 -5.794491,-1.791019 -2.633861,1.158895 -2.759508,2.526156 -2.022027,3.68505 5.000912,4.370186 7.047933,9.050087 4.550533,14.014437 -1.474962,2.73922 -6.531975,12.22112 -6.531975,12.22112 z"
       id="path7602"
       sodipodi:nodetypes="cccccccccccccccccccccccccccccccccccsssszccccccscccccsssscccczccsssssssssccc" /><text
       xml:space="preserve"
       style="font-style:normal;font-variant:normal;font-weight:bold;font-stretch:normal;font-size:21.016px;line-height:0.9;font-family:'Helvetica Neue';-inkscape-font-specification:'Helvetica Neue Bold';text-align:end;text-decoration-color:#000000;direction:rtl;text-anchor:end;opacity:0.868502;fill:#001655;fill-opacity:1;stroke:none;stroke-width:11.334;stroke-miterlimit:10;stop-color:#000000"
       x="127.9043"
       y="50.249104"
       id="text8471"
       transform="scale(0.94449495,1.0587669)"><tspan
         sodipodi:role="line"
         id="tspan8469"
         style="font-style:normal;font-variant:normal;font-weight:bold;font-stretch:normal;font-size:21.016px;font-family:'Helvetica Neue';-inkscape-font-specification:'Helvetica Neue Bold';fill:#001655;stroke-width:11.334;fill-opacity:1"
         x="127.9043"
         y="50.249104">The YU</tspan><tspan
         sodipodi:role="line"
         style="font-style:normal;font-variant:normal;font-weight:bold;font-stretch:normal;font-size:21.016px;font-family:'Helvetica Neue';-inkscape-font-specification:'Helvetica Neue Bold';fill:#001655;stroke-width:11.334;fill-opacity:1"
         x="127.9043"
         y="69.163506"
         id="tspan8473">Neuroscience</tspan><tspan
         sodipodi:role="line"
         style="font-style:normal;font-variant:normal;font-weight:bold;font-stretch:normal;font-size:21.016px;font-family:'Helvetica Neue';-inkscape-font-specification:'Helvetica Neue Bold';fill:#001655;stroke-width:11.334;fill-opacity:1"
         x="127.9043"
         y="88.077904"
         id="tspan8475">Club</tspan></text></g></svg>
